<?xml version="1.0" encoding="UTF-8" standalone="no"?>
<svg
   xmlns:dc="http://purl.org/dc/elements/1.1/"
   xmlns:cc="http://creativecommons.org/ns#"
   xmlns:rdf="http://www.w3.org/1999/02/22-rdf-syntax-ns#"
   xmlns:svg="http://www.w3.org/2000/svg"
   xmlns="http://www.w3.org/2000/svg"
   xmlns:sodipodi="http://sodipodi.sourceforge.net/DTD/sodipodi-0.dtd"
   xmlns:inkscape="http://www.inkscape.org/namespaces/inkscape"
   x="0px"
   y="0px"
   viewBox="0 0 360 360"
   enable-background="new 0 0 500 500"
   version="1.1"
   id="svg28"
   sodipodi:docname="KHADAS_LOGO_2005_360x360.svg"
   width="360"
   height="360"
   inkscape:version="0.92.3 (2405546, 2018-03-11)"
   inkscape:export-filename="KHADAS_LOGO_2005_360x360.png"
   inkscape:export-xdpi="96"
   inkscape:export-ydpi="96">
  <metadata
     id="metadata34">
    <rdf:RDF>
      <cc:Work
         rdf:about="">
        <dc:format>image/svg+xml</dc:format>
        <dc:type
           rdf:resource="http://purl.org/dc/dcmitype/StillImage" />
        <dc:title />
      </cc:Work>
    </rdf:RDF>
  </metadata>
  <defs
     id="defs32" />
  <sodipodi:namedview
     pagecolor="#ffffff"
     bordercolor="#666666"
     borderopacity="1"
     objecttolerance="10"
     gridtolerance="10"
     guidetolerance="10"
     inkscape:pageopacity="0"
     inkscape:pageshadow="2"
     inkscape:window-width="1920"
     inkscape:window-height="1010"
     id="namedview30"
     showgrid="false"
     inkscape:zoom="1.3350176"
     inkscape:cx="88.321868"
     inkscape:cy="247.00378"
     inkscape:window-x="0"
     inkscape:window-y="33"
     inkscape:window-maximized="1"
     inkscape:current-layer="layer1" />
  <g
     inkscape:groupmode="layer"
     id="layer1"
     inkscape:label="bg"
     style="display:inline">
    <rect
       style="opacity:1;fill:#000000;fill-opacity:1;stroke:none;stroke-width:3.59508657;stroke-linecap:round;stroke-miterlimit:4;stroke-dasharray:none;stroke-dashoffset:0;stroke-opacity:1"
       id="rect841"
       width="360"
       height="360"
       x="0"
       y="0" />
  </g>
  <g
     inkscape:groupmode="layer"
     id="layer2"
     inkscape:label="logo">
    <g
       transform="translate(1.0553797,-9.893079)"
       id="g865">
      <g
         id="g849">
        <path
           d="m 44.89462,280.64308 1.2,-0.6 c 1.2,-0.6 2.3,-1.3 3.3,-2 1,-0.7 2.1,-1.4 3.2,-2.1 1.1,-0.8 2.2,-1.6 3.4,-2.5 0.4,-0.3 0.8,-0.6 1.1,-1.1 0.3,-0.4 0.3,-0.8 0.3,-1.1 0,-0.7 -0.3,-1.2 -0.7,-1.7 -1,-1 -2.1,-0.9 -3.4,0.1 -1.9,1.3 -3.8,2.7 -5.8,4 -1.8,1.2 -3.9,2.4 -6.3,3.5 -2.3,1.1 -4.6,1.9 -6.8,2.5 -2.2,0.6 -4.7,0.9 -7.2,0.9 H 10.494621 v -9.3 c 0,-0.7 -0.3,-1.2 -0.7000004,-1.7 -1,-1 -2.3,-1 -3.3,0 -0.6000001,0.6 -0.7000001,1.2 -0.7000001,1.7 v 23.2 c 0,0.7 0.3,1.2 0.7000001,1.7 0.5,0.5 1.1,0.7 1.6,0.7 0.5,0 1.1,-0.2 1.6,-0.7 0.6000004,-0.6 0.7000004,-1.2 0.7000004,-1.7 v -9.3 H 27.09462 c 2.5,-0.2 4.9,0.1 7.2,0.7 2.3,0.6 4.6,1.4 6.8,2.5 2.2,1 4.3,2.2 6.3,3.4 2,1.3 4,2.7 5.8,4 1.3,1.1 2.4,1.1 3.4,0.2 0.6,-0.6 0.7,-1.2 0.7,-1.7 0,-0.5 -0.2,-0.9 -0.3,-1 l -0.1,-0.1 c -0.3,-0.4 -0.7,-0.8 -1.1,-1.1 l -1.2,-0.9 c -0.8,-0.6 -1.5,-1.1 -2.2,-1.7 -1,-0.8 -2.1,-1.6 -3.2,-2.1 -1,-0.6 -2.2,-1.3 -3.3,-2 -0.4,-0.2 -0.7,-0.4 -1.1,-0.6 -0.8,-0.4 -1.6,-0.9 -2.5,-1.2 l -1.7,-0.8 1.7,-0.8 z"
           id="path2"
           inkscape:connector-curvature="0"
           style="fill:#1e95d4" />
        <path
           d="m 113.59462,269.34308 c -0.6,0.6 -0.7,1.2 -0.7,1.7 v 9.3 h -42.1 v -9.3 c 0,-0.7 -0.3,-1.2 -0.7,-1.7 -0.9,-0.9 -2.3,-0.9 -3.3,0 -0.6,0.6 -0.7,1.2 -0.7,1.7 v 23.2 c 0,0.7 0.3,1.2 0.7,1.7 0.9,0.9 2.3,0.9 3.3,0 0.6,-0.6 0.7,-1.2 0.7,-1.7 v -9.3 h 42.1 v 9.3 c 0,0.7 0.3,1.2 0.6,1.6 l 0.1,0.1 c 0.5,0.4 1.1,0.6 1.7,0.6 0.6,0 1.2,-0.2 1.6,-0.7 0.6,-0.6 0.7,-1.2 0.7,-1.7 v -23.2 c 0,-0.7 -0.3,-1.2 -0.7,-1.7 -0.9,-0.8 -2.3,-0.8 -3.3,0.1 z"
           id="path4"
           inkscape:connector-curvature="0"
           style="fill:#1e95d4" />
        <path
           d="m 172.49462,292.54308 -16.6,-22.2 c -0.8,-1 -1.6,-1.7 -2.6,-2.2 -2.2,-1.1 -4.8,-1.1 -7.2,0.1 -1.2,0.7 -2.1,1.4 -2.7,2.3 l -16.5,22.2 c -0.3,0.3 -0.6,0.6 -0.6,1.5 0,0.7 0.3,1.2 0.6,1.6 l 0.1,0.1 c 1.1,1 2.5,0.9 3.5,-0.2 l 16,-21.2 c 0.3,-0.4 0.7,-0.8 1.3,-1.3 1.4,-1.2 2.8,-1.2 4.2,0 0.4,0.3 0.6,0.6 0.9,0.9 l 0.3,0.3 16,21.3 c 0.4,0.6 1.1,0.9 1.7,0.9 h 0.1 c 0.6,0 1.2,-0.2 1.6,-0.7 l 0.1,-0.1 c 0.3,-0.6 0.5,-1.1 0.5,-1.8 0,-0.2 0,-0.5 -0.1,-0.8 -0.2,-0.3 -0.4,-0.5 -0.6,-0.7 z"
           id="path6"
           inkscape:connector-curvature="0"
           style="fill:#1e95d4" />
        <path
           d="m 232.49462,273.34308 c -1.1,-1.4 -2.3,-2.5 -3.7,-3.2 -1.5,-0.8 -3,-1.2 -4.7,-1.2 h -39.7 c -0.7,0 -1.2,0.3 -1.7,0.7 -0.6,0.6 -0.7,1.2 -0.7,1.7 0,0.7 0.3,1.2 0.7,1.7 0.6,0.6 1.2,0.7 1.7,0.7 h 38.3 c 1.7,0 3.1,0.3 4.3,1 1,0.6 2,1.4 2.7,2.3 0.6,0.8 1.1,1.9 1.3,3 0.2,1 0.4,2.1 0.4,2.9 0,1 -0.1,1.9 -0.4,2.8 -0.2,1 -0.6,2.1 -1.4,3.1 -0.7,0.9 -1.6,1.7 -2.7,2.3 -1.2,0.7 -2.7,1 -4.3,1 h -36 v -9.5 c 0,-0.7 -0.3,-1.2 -0.7,-1.7 -0.6,-0.6 -1.2,-0.7 -1.7,-0.7 -0.7,0 -1.2,0.3 -1.7,0.7 -0.6,0.6 -0.7,1.2 -0.7,1.7 v 11.6 c 0,0.7 0.3,1.2 0.7,1.7 0.5,0.5 1.1,0.6 1.6,0.6 h 40.5 c 1.7,-0.1 3.1,-0.5 4.4,-1.4 1.6,-1.1 2.6,-2.1 3.4,-3.2 0.9,-1.2 1.7,-2.7 2.2,-4.4 0.5,-1.6 0.8,-3.3 0.8,-4.8 0,-1.5 -0.3,-3.2 -0.8,-4.9 -0.3,-1.5 -1.1,-3 -2.1,-4.5 z"
           id="path8"
           inkscape:connector-curvature="0"
           style="fill:#1e95d4" />
        <path
           d="m 288.79462,292.64308 -16.6,-22.2 c -0.8,-1 -1.6,-1.7 -2.6,-2.2 -2.2,-1.1 -4.8,-1.1 -7.2,0.1 -1.2,0.7 -2.1,1.4 -2.7,2.3 l -16.5,22.2 c -0.3,0.3 -0.6,0.6 -0.6,1.5 0,0.7 0.3,1.2 0.6,1.6 l 0.1,0.1 c 1,0.8 2.4,0.7 3.3,-0.3 l 16,-21.3 c 0.3,-0.3 0.7,-0.8 1.3,-1.4 1.4,-1.2 2.8,-1.2 4.2,0 0.4,0.3 0.6,0.6 0.9,0.9 l 0.3,0.3 16,21.3 c 0.4,0.6 1.1,0.9 1.7,0.9 h 0.1 c 0.6,0 1.2,-0.2 1.6,-0.7 0.6,-0.6 0.7,-1.2 0.7,-1.7 0,-0.2 0,-0.5 -0.1,-0.8 -0.1,-0.2 -0.3,-0.4 -0.5,-0.6 z"
           id="path10"
           inkscape:connector-curvature="0"
           style="fill:#1e95d4" />
        <path
           d="m 351.39462,285.34308 c -0.4,-0.9 -1,-1.8 -1.8,-2.6 -0.8,-0.8 -1.7,-1.4 -2.6,-1.8 -1,-0.4 -2.1,-0.6 -3.2,-0.6 h -37.7 c -0.9,0 -1.8,-0.4 -2.5,-1 -0.7,-0.6 -1,-1.5 -1,-2.4 0,-1 0.4,-1.9 1.1,-2.6 0.6,-0.6 1.5,-1 2.5,-1 h 41.5 c 0.7,0 1.2,-0.3 1.7,-0.7 0.6,-0.6 0.7,-1.2 0.7,-1.7 0,-0.7 -0.3,-1.2 -0.7,-1.7 -0.6,-0.6 -1.2,-0.7 -1.7,-0.7 h -41.3 c -1.1,0 -2.2,0.2 -3.1,0.6 -1,0.4 -1.9,1.1 -2.6,1.8 -0.8,0.8 -1.4,1.7 -1.8,2.6 -0.4,0.9 -0.6,2 -0.6,3.1 0,1.1 0.2,2.2 0.6,3.1 0.4,1 1.1,1.9 1.8,2.6 0.8,0.8 1.7,1.4 2.6,1.8 0.9,0.4 2,0.6 3.1,0.6 h 37.9 c 0.9,0 1.8,0.4 2.5,1 0.7,0.7 1.1,1.6 1.1,2.5 0,1 -0.4,1.8 -1.1,2.5 -0.6,0.6 -1.4,1 -2.4,1 h -41.6 c -0.7,0 -1.2,0.3 -1.7,0.7 -0.6,0.6 -0.7,1.2 -0.7,1.7 0,0.7 0.3,1.2 0.7,1.7 0.6,0.6 1.2,0.7 1.7,0.7 h 40.5 v 0.1 h 0.6 c 1.2,0 2.3,-0.2 3.2,-0.6 1.1,-0.4 1.9,-1 2.6,-1.7 0.8,-0.8 1.4,-1.7 1.8,-2.6 0.4,-0.9 0.6,-2 0.6,-3.1 0,-1.2 -0.2,-2.3 -0.7,-3.3 z"
           id="path12"
           inkscape:connector-curvature="0"
           style="fill:#1e95d4" />
      </g>
      <g
         transform="translate(-74.90538,-55.356922)"
         id="g26">
        <path
           style="fill:#1e95d4"
           inkscape:connector-curvature="0"
           id="path14"
           d="M 316.3,286.7 H 188.5 c -5.7,0 -10.3,-4.6 -10.3,-10.3 V 148.6 c 0,-5.7 4.6,-10.3 10.3,-10.3 h 127.8 c 5.7,0 10.3,4.6 10.3,10.3 v 127.8 c -0.1,5.7 -4.7,10.3 -10.3,10.3 z M 188.5,139.8 c -4.9,0 -8.8,4 -8.8,8.8 v 127.8 c 0,4.9 4,8.8 8.8,8.8 h 127.8 c 4.9,0 8.8,-4 8.8,-8.8 V 148.6 c 0,-4.9 -4,-8.8 -8.8,-8.8 H 188.5 Z" />
        <path
           style="fill:#1e95d4"
           inkscape:connector-curvature="0"
           id="path16"
           d="m 191.3,273.7 c -1.2,-1.2 -1.2,-3 0,-4.2 L 309.4,151.4 c 1.2,-1.2 3,-1.2 4.2,0 1.2,1.2 1.2,3 0,4.2 L 195.4,273.7 c -1.1,1.2 -3,1.2 -4.1,0 z" />
        <path
           style="fill:#c9caca"
           inkscape:connector-curvature="0"
           id="path18"
           d="m 202.9,229.2 c -1.7,0 -3.5,-0.4 -5.2,-1.1 -4.6,-2 -7.4,-6.7 -7.4,-11.7 v -62.9 c 0,-1.6 1.3,-3 3,-3 1.6,0 3,1.3 3,3 v 63.2 c 0,3.2 2.1,5.3 4.1,6.1 2,0.8 4.9,0.9 7.2,-1.4 l 70,-70 c 1.2,-1.2 3,-1.2 4.2,0 1.2,1.2 1.2,3 0,4.2 l -70,70 c -2.6,2.3 -5.7,3.6 -8.9,3.6 z" />
        <path
           style="fill:#f8b62d"
           inkscape:connector-curvature="0"
           id="path20"
           d="m 309.4,273.7 -44.1,-44.2 c -1.2,-1.2 -1.2,-3 0,-4.2 1.2,-1.2 3,-1.2 4.2,0 l 44.1,44.2 c 1.2,1.2 1.2,3 0,4.2 -1.2,1.2 -3.1,1.2 -4.2,0 z" />
        <path
           style="fill:#8fc31f"
           inkscape:connector-curvature="0"
           id="path22"
           d="M 276.6,273.7 248.9,246 c -1.2,-1.2 -1.2,-3 0,-4.2 1.2,-1.2 3,-1.2 4.2,0 l 27.7,27.7 c 1.2,1.2 1.2,3 0,4.2 -1.2,1.2 -3,1.2 -4.2,0 z" />
        <path
           style="fill:#e60012"
           inkscape:connector-curvature="0"
           id="path24"
           d="m 215.9,192.2 c -1.6,0 -3,-1.3 -3,-3 v -35.8 c 0,-1.6 1.3,-3 3,-3 1.6,0 3,1.3 3,3 v 35.8 c -0.1,1.7 -1.4,3 -3,3 z" />
      </g>
    </g>
  </g>
</svg>
